<svg width="50" height="50" viewBox="0 0 50 50" fill="none" xmlns="http://www.w3.org/2000/svg">
<rect x="3.38477" y="3.73553" width="44.7354" height="43.6702" fill="white"/>
<path d="M50 3.67647V46.3235C50 47.2986 49.6127 48.2337 48.9232 48.9232C48.2337 49.6127 47.2986 50 46.3235 50H3.67647C2.70141 50 1.76629 49.6127 1.07681 48.9232C0.387341 48.2337 0 47.2986 0 46.3235L0 3.67647C0 2.70141 0.387341 1.76629 1.07681 1.07681C1.76629 0.387341 2.70141 0 3.67647 0L46.3235 0C47.2986 0 48.2337 0.387341 48.9232 1.07681C49.6127 1.76629 50 2.70141 50 3.67647V3.67647ZM14.7059 19.1176H7.35294V42.6471H14.7059V19.1176ZM15.3676 11.0294C15.3715 10.4732 15.2658 9.92171 15.0565 9.40638C14.8473 8.89105 14.5385 8.42198 14.148 8.02596C13.7574 7.62995 13.2927 7.31473 12.7803 7.09833C12.2679 6.88192 11.718 6.76855 11.1618 6.76471H11.0294C9.89834 6.76471 8.8136 7.21402 8.01381 8.01381C7.21402 8.8136 6.76471 9.89834 6.76471 11.0294C6.76471 12.1605 7.21402 13.2452 8.01381 14.045C8.8136 14.8448 9.89834 15.2941 11.0294 15.2941V15.2941C11.5856 15.3078 12.1391 15.2118 12.6582 15.0115C13.1773 14.8112 13.6518 14.5106 14.0547 14.1268C14.4576 13.743 14.7809 13.2837 15.0062 12.7749C15.2315 12.2662 15.3543 11.718 15.3676 11.1618V11.0294ZM42.6471 28.3529C42.6471 21.2794 38.1471 18.5294 33.6765 18.5294C32.2127 18.4561 30.7553 18.7679 29.4496 19.4336C28.144 20.0994 27.0357 21.0958 26.2353 22.3235H26.0294V19.1176H19.1176V42.6471H26.4706V30.1324C26.3643 28.8506 26.768 27.5787 27.5941 26.593C28.4202 25.6072 29.6018 24.9872 30.8824 24.8676H31.1618C33.5 24.8676 35.2353 26.3382 35.2353 30.0441V42.6471H42.5882L42.6471 28.3529Z" fill="black"/>
</svg>
