<svg width="50" height="50" viewBox="0 0 50 50" fill="none" xmlns="http://www.w3.org/2000/svg">
<path d="M50 5.92013C48.1613 6.92262 46.186 7.59998 44.1095 7.90615C46.2279 6.34551 47.853 3.86908 48.6193 0.921209C46.6375 2.36805 44.442 3.41931 42.1056 3.98288C40.2339 1.53354 37.5694 0 34.6186 0C28.9549 0 24.3614 5.65189 24.3614 12.626C24.3614 13.6122 24.4539 14.5714 24.6256 15.498C16.0971 14.9697 8.5418 9.94364 3.48146 2.30844C2.60063 4.17796 2.09416 6.34551 2.09416 8.65395C2.09416 13.0324 3.90646 16.8988 6.65683 19.1612C4.97446 19.0934 3.39338 18.5272 2.01048 17.5816V17.7441C2.01048 23.8593 5.54479 28.9612 10.2396 30.1208C9.37638 30.408 8.47133 30.5598 7.53766 30.5598C6.87704 30.5598 6.23183 30.4839 5.60645 30.3376C6.91227 35.3501 10.6998 39.0024 15.1898 39.0999C11.6775 42.4867 7.25359 44.5053 2.44869 44.5053C1.62072 44.5053 0.803752 44.4457 0 44.3291C4.54065 47.9137 9.9313 50 15.7227 50C34.5944 50 44.911 30.7684 44.911 14.0891C44.911 13.5472 44.9 12.9999 44.8802 12.458C46.8841 10.6752 48.6237 8.45616 49.9956 5.92825L50 5.92013Z" fill="black"/>
</svg>
