<svg width="256" height="256" viewBox="0 0 256 256" fill="none" xmlns="http://www.w3.org/2000/svg">
<g clip-path="url(#clip0_49_2)">
<path d="M256 192C256 199.544 253.003 206.779 247.669 212.113C242.334 217.448 235.099 220.444 227.556 220.444H28.4444C20.9005 220.444 13.6656 217.448 8.33119 212.113C2.99682 206.779 0 199.544 0 192V64C0 56.4561 2.99682 49.2211 8.33119 43.8867C13.6656 38.5524 20.9005 35.5555 28.4444 35.5555H227.556C235.099 35.5555 242.334 38.5524 247.669 43.8867C253.003 49.2211 256 56.4561 256 64V192Z" fill="#75AADB"/>
<path d="M0 92.4445H256V163.556H0V92.4445Z" fill="#EEEEEE"/>
<path d="M128 92.4445L131.47 110.564L141.611 95.1538L137.877 113.216L153.138 102.855L142.777 118.123L160.846 114.396L145.436 124.53L163.556 128L145.436 131.47L160.846 141.611L142.777 137.877L153.138 153.138L137.877 142.777L141.611 160.846L131.47 145.436L128 163.556L124.53 145.436L114.396 160.846L118.123 142.777L102.855 153.138L113.216 137.877L95.1538 141.611L110.564 131.47L92.4445 128L110.564 124.53L95.1538 114.396L113.216 118.123L102.855 102.855L118.123 113.216L114.396 95.1538L124.53 110.564L128 92.4445Z" fill="#FCBF49"/>
<path d="M128 101.902L129.721 110.898L130.546 115.2L132.956 111.545L137.991 103.893L136.135 112.86L135.246 117.156L138.873 114.695L146.453 109.554L141.312 117.134L138.852 120.761L143.14 119.872L152.114 118.023L144.462 123.058L140.8 125.454L145.102 126.279L154.098 128L145.102 129.721L140.8 130.546L144.455 132.956L152.107 137.991L143.132 136.135L138.837 135.246L141.298 138.873L146.439 146.446L138.866 141.305L135.239 138.844L136.128 143.14L137.984 152.114L132.949 144.462L130.546 140.8L129.721 145.102L128 154.098L126.279 145.102L125.454 140.8L123.044 144.462L118.009 152.114L119.858 143.14L120.747 138.852L117.12 141.312L109.54 146.453L114.681 138.873L117.141 135.246L112.846 136.135L103.879 137.991L111.531 132.956L115.186 130.546L110.884 129.721L101.902 128L110.898 126.279L115.2 125.454L111.538 123.044L103.886 118.009L112.853 119.858L117.141 120.747L114.681 117.12L109.532 109.54L117.113 114.688L120.74 117.148L119.851 112.86L118.002 103.893L123.036 111.545L125.447 115.207L126.272 110.905L128 101.902ZM128 92.4445L124.53 110.564L114.396 95.1538L118.123 113.223L102.855 102.862L113.216 118.13L95.1538 114.404L110.564 124.537L92.4445 128L110.564 131.47L95.1538 141.611L113.216 137.877L102.855 153.138L118.123 142.777L114.396 160.846L124.53 145.436L128 163.556L131.47 145.436L141.611 160.846L137.877 142.777L153.138 153.138L142.777 137.877L160.846 141.611L145.436 131.47L163.556 128L145.436 124.53L160.846 114.396L142.777 118.123L153.138 102.855L137.877 113.216L141.611 95.1467L131.47 110.556L128 92.4445ZM141.611 95.1538H141.646H141.611ZM153.138 102.855H153.173H153.138ZM160.846 114.396H160.882H160.846Z" fill="#843511"/>
<path d="M128 142.222C135.855 142.222 142.222 135.855 142.222 128C142.222 120.145 135.855 113.778 128 113.778C120.145 113.778 113.778 120.145 113.778 128C113.778 135.855 120.145 142.222 128 142.222Z" fill="#FCBF49"/>
<path d="M128 143.111C119.666 143.111 112.889 136.334 112.889 128C112.889 119.666 119.666 112.889 128 112.889C136.334 112.889 143.111 119.666 143.111 128C143.111 136.334 136.334 143.111 128 143.111ZM128 114.667C120.647 114.667 114.667 120.647 114.667 128C114.667 135.353 120.647 141.333 128 141.333C135.353 141.333 141.333 135.353 141.333 128C141.333 120.647 135.353 114.667 128 114.667Z" fill="#843511"/>
<path d="M126.585 126.393C126.585 127.495 124.729 128.384 122.439 128.384C120.142 128.384 118.286 127.495 118.286 126.393C118.286 125.291 120.142 124.402 122.439 124.402C124.729 124.402 126.585 125.291 126.585 126.393ZM137.628 126.222C137.628 125.077 135.737 124.146 133.404 124.146C131.072 124.146 129.18 125.07 129.18 126.222C129.18 127.374 131.072 128.299 133.404 128.299C135.744 128.299 137.628 127.367 137.628 126.222Z" fill="#C16540"/>
<path d="M124.181 134.215C124.181 133.319 125.931 132.587 128.078 132.587C130.233 132.587 131.975 133.312 131.975 134.215C131.975 135.111 130.226 135.844 128.078 135.844C125.923 135.844 124.181 135.111 124.181 134.215Z" fill="#ED8662"/>
</g>
<defs>
<clipPath id="clip0_49_2">
<rect width="256" height="256" fill="white"/>
</clipPath>
</defs>
</svg>
