<svg width="60" height="60" viewBox="0 0 60 60" fill="none" xmlns="http://www.w3.org/2000/svg">
<path d="M59.899 17.65C59.8985 16.6438 59.6564 15.7546 59.1668 14.9915C58.6859 14.2411 57.9656 13.6121 56.9995 13.1148C49.0249 9.02753 41.0426 4.95274 33.0705 0.861281C30.9213 -0.241636 28.8375 -0.201427 26.7042 0.917323C23.5301 2.58128 7.63828 10.6744 2.90273 13.1125C0.9525 14.1161 0.00351562 15.6519 0.00304687 17.6482C0 25.8679 0.00304687 34.0875 0 42.3075C0.00046875 43.2917 0.232266 44.1636 0.700312 44.9152C1.18148 45.6884 1.9118 46.3346 2.90016 46.8432C7.63594 49.2813 23.5298 57.3738 26.7033 59.0382C28.8375 60.1575 30.9213 60.1975 33.0712 59.0942C41.0435 55.0025 49.0263 50.928 57.0021 46.8407C57.9905 46.3323 58.7208 45.6857 59.202 44.9132C59.6693 44.1615 59.9016 43.2896 59.902 42.3052C59.902 42.3052 59.902 25.87 59.899 17.65Z" fill="#5C8DBC"/>
<path d="M30.0425 29.8977L0.700195 44.9152C1.18137 45.6883 1.91168 46.3346 2.90004 46.8431C7.63582 49.2812 23.5297 57.3737 26.7032 59.0381C28.8374 60.1575 30.9212 60.1975 33.0711 59.0942C41.0434 55.0025 49.0262 50.9279 57.002 46.8406C57.9903 46.3323 58.7207 45.6856 59.2018 44.9131L30.0425 29.8977Z" fill="#1A4674"/>
<path d="M21.3518 34.346C23.0592 36.9956 26.269 38.7827 29.951 38.7827C33.6558 38.7827 36.8838 36.9729 38.5826 34.295L30.0427 29.8977L21.3518 34.346Z" fill="#1A4674"/>
<path d="M59.899 17.65C59.8986 16.6437 59.6565 15.7546 59.1669 14.9915L30.0427 29.8977L59.202 44.9131C59.6694 44.1614 59.9016 43.2896 59.9021 42.3052C59.9021 42.3052 59.9021 25.87 59.899 17.65Z" fill="#1B598E"/>
<path d="M58.2955 30.971H56.0169V32.9969H53.7378V30.971H51.4595V28.9458H53.7378V26.9204H56.0169V28.9458H58.2955V30.971ZM49.9811 30.971H47.7027V32.9969H45.4241V30.971H43.1455V28.9458H45.4241V26.9204H47.7027V28.9458H49.9811V30.971Z" fill="white"/>
<path d="M38.5825 34.295C36.8837 36.9729 33.6557 38.7827 29.9509 38.7827C26.2689 38.7827 23.0591 36.9957 21.3517 34.3461C20.494 33.0166 20.0435 31.5103 20.0453 29.9777C20.0453 25.115 24.4804 21.1729 29.9509 21.1729C33.6093 21.1729 36.8022 22.9377 38.518 25.5602L47.1761 21.1286C43.7348 15.8482 37.3098 12.2957 29.9509 12.2957C18.9644 12.2957 10.0583 20.2123 10.0583 29.9777C10.0583 33.1815 11.0172 36.1859 12.693 38.7773C16.1256 44.0857 22.5688 47.66 29.9509 47.66C37.3466 47.66 43.7999 44.0713 47.2276 38.7473L38.5825 34.295Z" fill="white"/>
</svg>
