<svg width="60" height="60" viewBox="0 0 60 60" fill="none" xmlns="http://www.w3.org/2000/svg">
<path d="M13.4719 39.1687C19.9768 39.5566 21.367 39.416 21.367 40.568C21.367 42.9117 12.5879 42.9188 12.5879 40.7461C12.5893 40.1496 13.0286 39.6445 13.4719 39.1687V39.1687ZM17.2152 25.5C12.8906 25.5 12.6951 30.7113 17.1147 30.7113C21.4687 30.7113 21.3616 25.5 17.2152 25.5V25.5ZM60 9.375V50.625C60 52.1168 59.3227 53.5476 58.1171 54.6025C56.9115 55.6574 55.2764 56.25 53.5714 56.25H6.42857C4.72361 56.25 3.08848 55.6574 1.88288 54.6025C0.677294 53.5476 0 52.1168 0 50.625L0 9.375C0 7.88316 0.677294 6.45242 1.88288 5.39752C3.08848 4.34263 4.72361 3.75 6.42857 3.75H53.5714C55.2764 3.75 56.9115 4.34263 58.1171 5.39752C59.3227 6.45242 60 7.88316 60 9.375V9.375ZM29.5982 17.4973C29.5982 19.1953 30.7205 20.1785 32.6598 20.1785C34.6339 20.1785 35.7576 19.1953 35.7576 17.4973C35.7576 15.7992 34.6366 14.8828 32.6625 14.8828C30.7232 14.8828 29.5982 15.8016 29.5982 17.4973ZM26.6759 22.8516H20.0397C16.6915 22.084 9.11652 22.2832 9.11652 28.3301C9.11652 30.5332 10.3754 32.0801 12.0429 32.7961C9.94152 34.4801 8.94643 35.2734 8.94643 36.3984C8.94643 37.2035 9.32009 37.9477 10.4438 38.3625C9.25179 39.3469 8.56875 40.0594 8.56875 41.4C8.57143 43.752 10.9192 45.1172 17.0786 45.1172C23.0009 45.1172 26.4362 43.1824 26.4362 39.7582C26.4362 35.4609 22.6554 35.6191 13.7437 35.1434L14.8661 33.5695C17.1429 34.125 24.8022 34.2996 24.8022 28.5973C24.8022 27.2273 24.1554 26.2746 23.5433 25.5891L26.6746 25.3805L26.6759 22.8516ZM37.9714 35.7234L36.2304 35.5148C35.7187 35.4551 35.6853 35.3977 35.6853 34.9184V22.5609H28.6406L28.267 24.9715C30.3763 25.6219 30.5437 25.541 30.5437 26.1633V34.9219C30.5437 35.5805 30.5022 35.4586 28.267 35.727V38.0777H37.9661L37.9714 35.7234ZM51.4286 36.9141L50.5085 34.2926C45.0268 36.0938 45.4393 32.8383 45.4393 32.332V25.2164H50.5085V22.2387H45.7112C45.3268 22.2387 45.4433 22.534 45.4433 17.7117H42.2049C41.8312 20.9578 40.6406 22.268 37.6513 22.5656V25.2164C40.3929 25.2164 40.3058 25.1168 40.3058 25.5141V33.3152C40.3058 36.6809 41.8366 38.1094 45.8866 38.1094C47.8219 38.1094 49.9647 37.5434 51.4286 36.9141V36.9141Z" fill="white" fill-opacity="0.7"/>
</svg>
