<svg width="60" height="60" viewBox="0 0 60 60" fill="none" xmlns="http://www.w3.org/2000/svg">
<path d="M29.9766 4.47071C15.4863 4.46485 3.75 16.1953 3.75 30.6738C3.75 42.123 11.0918 51.8555 21.3164 55.4297C22.6934 55.7754 22.4824 54.7969 22.4824 54.1289V49.5879C14.5313 50.5195 14.209 45.2578 13.6758 44.3789C12.5977 42.5391 10.0488 42.0703 10.8105 41.1914C12.6211 40.2598 14.4668 41.4258 16.6055 44.584C18.1523 46.875 21.1699 46.4883 22.6992 46.1074C23.0332 44.7305 23.748 43.5 24.7324 42.5449C16.4941 41.0684 13.0605 36.041 13.0605 30.0644C13.0605 27.1641 14.0156 24.498 15.8906 22.3477C14.6953 18.8027 16.002 15.7676 16.1777 15.3164C19.582 15.0117 23.1211 17.7539 23.3965 17.9707C25.3301 17.4492 27.5391 17.1738 30.0117 17.1738C32.4961 17.1738 34.7109 17.4609 36.6621 17.9883C37.3242 17.4844 40.6055 15.1289 43.7695 15.416C43.9395 15.8672 45.2168 18.832 44.0918 22.3301C45.9902 24.4863 46.957 27.1758 46.957 30.082C46.957 36.0703 43.5 41.1035 35.2383 42.5566C35.9459 43.2525 36.5078 44.0825 36.8911 44.998C37.2744 45.9135 37.4714 46.8962 37.4707 47.8887V54.4805C37.5176 55.0078 37.4707 55.5293 38.3496 55.5293C48.7266 52.0312 56.1973 42.2285 56.1973 30.6797C56.1973 16.1953 44.4551 4.47071 29.9766 4.47071Z" fill="#097BE6"/>
</svg>
