<svg width="60" height="60" viewBox="0 0 60 60" fill="none" xmlns="http://www.w3.org/2000/svg">
<path d="M11.0662 51.0019L6.85303 3.75H53.1468L48.928 50.9944L29.9718 56.25L11.0662 51.0019Z" fill="#E44F26"/>
<path d="M30 52.2337L45.3187 47.9869L48.9225 7.61438H30V52.2337Z" fill="#F1662A"/>
<path d="M30 25.1381H22.3312L21.8025 19.2037H30V13.4081H15.4688L15.6075 14.9643L17.0306 30.9337H30V25.1381ZM30 40.1887L29.9738 40.1962L23.52 38.4543L23.1075 33.8325H17.2894L18.1013 42.93L29.9738 46.2262L30 46.2187V40.1887Z" fill="#EBEBEB"/>
<path d="M29.9795 25.1381V30.9337H37.1157L36.4445 38.4506L29.9795 40.1943V46.2243L41.8614 42.9299L41.9476 41.9512L43.3089 26.6943L43.4514 25.1381H29.9795ZM29.9795 13.4081V19.2037H43.9782L44.0945 17.9025L44.3589 14.9643L44.4976 13.4081H29.9795Z" fill="white"/>
</svg>
