<svg width="60" height="60" viewBox="0 0 60 60" fill="none" xmlns="http://www.w3.org/2000/svg">
<g clip-path="url(#clip0_26_21)">
<path d="M17.8491 39.5926L19.6725 48.2723C20.0821 50.243 20.253 51.6187 20.1846 52.4029C21.1818 48.4845 21.8786 44.2143 22.275 39.5926H24.4676C23.5248 47.1168 22.2814 52.5846 20.7379 55.9955C19.5354 58.6239 18.218 59.9381 16.7834 59.9381C16.4009 59.9381 15.9293 59.7686 15.3698 59.432V57.6182C15.6431 57.677 15.9639 57.7085 16.3328 57.7085C17.002 57.7085 17.5414 57.4363 17.9518 56.8932C18.4432 56.2315 18.6892 55.4878 18.6892 54.6634C18.6892 54.1006 18.4973 52.9454 18.1154 51.198L15.5748 39.5926H17.8489H17.8491ZM3.89375 34.2578L7.23355 49.2072H7.25417L10.6145 34.2578H13.3599C13.9611 41.6716 14.3161 48.4551 14.4251 54.6038H12.1105C12.029 48.856 11.8034 43.4512 11.4345 38.3883H11.4144L7.88967 54.6038H6.12696L2.62357 38.3883H2.60295C2.34303 43.2505 2.17944 48.6553 2.11124 54.6038H0.000488281C0.136893 47.3694 0.478255 40.588 1.02457 34.2578H3.89387H3.89375Z" fill="#00758F"/>
<path d="M41.3082 33.9559C44.9007 33.9559 46.6971 37.3231 46.6971 44.0543C46.6971 47.712 46.1568 50.4749 45.0774 52.3415C44.8829 52.6826 44.6679 52.9772 44.4415 53.2502L46.9838 55.0944L46.9814 55.0943L46.0787 57.3811L42.7678 54.547C42.2191 54.7855 41.6152 54.9046 40.9572 54.9046C39.1932 54.9046 37.8756 54.1504 37.0044 52.6439C36.0482 50.9773 35.5703 48.3536 35.5703 44.7773C35.5703 41.1402 36.1096 38.3878 37.1893 36.5188C38.1727 34.8093 39.5459 33.9557 41.3082 33.9557V33.9559ZM30.3068 33.9854C31.5908 33.9854 32.7583 34.4895 33.8099 35.494L33.2758 37.2402C32.3759 36.6791 31.4887 36.3973 30.6138 36.3973C29.9039 36.3973 29.3569 36.648 28.9755 37.1524C28.5921 37.6523 28.3549 38.2956 28.3549 39.0799C28.3549 40.2851 28.9401 41.3302 30.0207 42.2132C30.3747 42.4971 30.7275 42.7842 31.079 43.0747L31.1596 43.1412L31.2001 43.1745L31.2808 43.2411L31.3211 43.2744L31.4017 43.3411C32.2197 44.0176 32.9894 44.6634 32.9894 44.6634C34.0698 45.7886 34.6084 46.9882 34.6084 48.9641C34.6084 50.6897 34.1774 52.1061 33.3182 53.2145C32.4584 54.3179 31.3033 54.8711 29.8568 54.8711C28.5039 54.8711 27.1927 54.2343 25.9226 52.9714L26.5167 51.2236C27.6097 52.0274 28.5988 52.4288 29.4869 52.4288C30.3199 52.4288 30.9719 52.156 31.4436 51.6172C31.9143 51.0744 32.1964 50.3175 32.1964 49.3576C32.1964 48.1496 31.6236 47.1168 30.5728 46.2505C30.2439 45.9839 29.9159 45.7148 29.589 45.443L29.5085 45.3761C29.3606 45.2536 29.2117 45.1294 29.0658 45.0079L28.9867 44.9419C28.2771 44.3498 27.6636 43.8325 27.6636 43.8325C26.6132 42.7052 26.0864 41.4957 26.0864 39.5029C26.0864 37.8547 26.4792 36.5225 27.2637 35.509C28.05 34.4933 29.0645 33.9854 30.3068 33.9854ZM50.9192 34.2578V52.101H55.2829V54.6038H48.706V34.2578H50.9192ZM57.7077 52.1087V52.5316H57.228V54.6015H56.8612V52.5316H56.3628V52.1087H57.7079H57.7077ZM58.5937 52.1087L59.0543 53.808L59.4775 52.1087H59.9974V54.6015H59.6517V52.7044L59.1701 54.6015H58.9208L58.4384 52.7044H58.4199V54.6015H58.0928V52.1087H58.5938H58.5937ZM41.0822 36.458C38.9652 36.458 37.906 39.0213 37.906 44.1445C37.906 47.0792 38.1867 49.2072 38.747 50.5336C39.2659 51.7611 40.0785 52.3736 41.1851 52.3736C43.3022 52.3736 44.3612 49.7904 44.3612 44.6262C44.3612 41.7326 44.0805 39.6229 43.521 38.2958C43.0015 37.071 42.1892 36.458 41.0824 36.458H41.0822Z" fill="#F29111"/>
<path d="M35.5332 1.2607C36.2355 -1.27099 38.6911 0.646258 39.6441 1.53061C39.8777 1.75187 40.1455 2.21932 40.4133 2.3921C40.8311 2.41617 41.2485 2.46414 41.667 2.48975C42.4519 2.76036 43.1871 2.98144 43.8056 3.49824C46.6799 5.98162 48.551 8.51228 50.2731 12.6923C50.641 13.5777 50.8249 14.5358 51.1255 15.4939C51.5427 16.9221 52.0114 18.4212 52.4956 19.7716C52.7124 20.4119 52.8801 21.1238 53.1812 21.6645C53.2987 21.9117 53.6326 21.9846 53.8321 22.1323C54.3838 22.5512 55.0523 22.8693 55.5712 23.361C56.5402 24.2474 57.4771 25.3037 58.3288 26.3851C58.6462 26.8025 58.8626 27.3934 59.165 27.8349V28.0577C58.8966 28.1785 58.629 28.3023 58.3612 28.4015C57.7764 28.6219 57.2583 28.5721 56.6909 28.7926C56.3403 28.9419 55.9049 29.1387 55.5372 29.1887L55.5712 29.2389C55.7875 30.1458 56.9579 30.8833 57.4933 31.4257C58.1434 32.1141 58.7458 32.949 59.2308 33.9078C59.3982 34.1524 59.5657 34.375 59.7323 34.619C59.8488 34.8662 59.8816 35.186 59.9995 35.4064V35.481C59.869 35.4134 59.7751 35.2845 59.6861 35.1497L59.6331 35.0684C59.58 34.9876 59.5264 34.9082 59.4654 34.8427C59.0965 34.473 58.7301 34.0308 58.3612 33.6872C57.727 33.0968 56.9915 32.7542 56.3403 32.1616C55.9721 31.8176 55.6211 31.4257 55.2701 31.0321C54.952 30.687 54.6016 30.0244 54.4017 29.5327C54.2839 29.2611 54.2677 28.9419 54.1332 28.7453C54.1572 28.4172 54.3622 28.3197 54.569 28.2396L54.6166 28.2212C54.6879 28.194 54.7578 28.1668 54.8187 28.1309C55.6875 27.5897 56.7233 27.3934 58.0609 27.4425C58.0105 26.9498 57.1747 26.3359 56.9079 26.0409C56.3724 25.4746 55.8053 24.8837 55.2372 24.3683C54.9361 24.0984 54.4174 23.9013 54.0838 23.6808C53.6326 23.4102 52.6296 23.1397 52.3795 22.6243C51.9547 21.8118 51.6495 20.8427 51.3533 19.8638L51.2727 19.5966C51.2458 19.5076 51.2188 19.4186 51.1918 19.3296C50.8417 18.1508 50.4067 16.9217 50.0557 15.7147C49.8722 15.1259 49.7879 14.6091 49.587 14.0443C48.3674 10.5788 46.5624 7.67726 44.374 5.63675C43.6548 4.97279 42.8529 4.35835 41.9677 3.94076C41.466 3.71847 40.8639 3.84139 40.3294 3.67084H39.9776C39.6774 3.54672 39.4267 3.07978 39.1925 2.83359C38.6751 2.31818 38.1569 1.9721 37.5382 1.60437C37.3214 1.45686 36.7023 1.11336 36.4862 1.38379C36.3524 1.43314 36.2845 1.50723 36.2516 1.70425C36.1184 1.99824 36.2355 2.4411 36.3184 2.71222C36.5694 3.49789 36.92 3.96483 37.2383 4.62878C37.5214 5.21761 37.8731 5.88156 38.0738 6.52179C38.5069 7.89801 38.7086 9.42276 39.11 10.7988C39.2588 11.3163 39.4942 11.9051 39.7109 12.3719C39.8945 12.7424 40.2284 13.0102 40.3294 13.4792C40.5307 13.9709 40.028 15.5933 39.9116 16.1086C39.4763 18.1247 39.5607 20.9271 40.062 22.6747L40.0887 22.7668L40.1154 22.8602C40.2985 23.5002 40.4944 24.1895 40.9811 24.3684C41.0146 24.3196 40.9811 24.3452 41.0475 24.3196C41.1653 22.9669 41.1984 21.6643 41.5163 20.606C41.6999 19.9443 42.0666 19.4765 42.3179 18.9363C42.4855 19.0835 42.4855 19.5272 42.5853 19.8208C42.8028 20.5824 43.0364 21.4174 43.3045 22.1813C43.8548 23.7543 44.474 25.2794 45.1756 26.6555C45.4106 27.147 45.744 27.688 46.0447 28.1307C46.1786 28.3021 46.3286 28.4012 46.4293 28.6217H46.4621V28.696C45.9608 28.4249 45.643 27.664 45.2431 27.2197C44.4903 26.3847 43.5888 25.1307 43.0699 23.9275C42.8529 23.2367 42.6183 22.5746 42.3844 21.8873V21.8376C42.2844 22.0339 42.3179 22.2289 42.2679 22.526C42.0509 23.7543 42.218 25.1557 41.466 25.5975C40.6136 26.115 39.9777 24.7625 39.7109 24.1479C38.8583 22.1079 38.6247 18.6664 39.226 15.8883C39.3596 15.2734 39.3777 14.5358 39.6109 14.0448C39.5605 13.6009 39.3273 13.4796 39.1925 13.2076C38.9586 12.7427 38.7583 12.2012 38.5751 11.6849C38.2233 10.6764 37.973 9.47142 37.706 8.38987C37.5885 7.94821 37.5549 7.50483 37.4378 7.08672C37.2382 6.44855 36.8701 5.80832 36.5861 5.24374C36.2016 4.43228 35.0818 2.85955 35.5332 1.2607ZM41.0142 6.07703C41.0589 6.14271 41.1128 6.20013 41.1686 6.25669L41.2358 6.32443C41.3255 6.41554 41.4123 6.51147 41.4655 6.64213C41.5499 6.81508 41.5656 6.9858 41.6666 7.1591C41.6666 7.74998 41.5499 8.14282 41.3142 8.38763C41.3142 8.38763 41.2982 8.41342 41.2817 8.43749C41.1481 8.04362 41.031 7.65182 40.8965 7.25829C40.7308 6.9148 40.4965 6.6423 40.3615 6.24981H40.3291V6.20047C40.5307 6.12741 40.7308 6.07703 41.0142 6.07703Z" fill="#00758F"/>
</g>
<defs>
<clipPath id="clip0_26_21">
<rect width="60" height="60" fill="white"/>
</clipPath>
</defs>
</svg>
