<svg width="60" height="60" viewBox="0 0 60 60" fill="none" xmlns="http://www.w3.org/2000/svg">
<path d="M45.3389 13.8848C46.7452 13.8848 48.0451 14.3108 49.6218 15.2249L48.4982 21.9952C47.6246 21.5075 48.4283 21.9298 47.7682 21.7472V22.7226L47.8106 26.6832L47.8317 31.803C47.853 33.0825 47.853 34.3626 47.8744 35.6423V38.2022C47.8744 46.2473 47.6401 50.0256 46.9369 53.1335C45.9143 57.7049 44.1457 59.9598 41.6315 59.9598C40.353 59.9598 39.2453 59.4114 38.0945 58.1313V49.4772H38.0947C39.2455 51.1834 40.3959 51.9754 41.6103 51.9754C43.7622 51.9754 44.6785 49.4772 44.6785 43.504V43.3213C44.0394 44.2351 43.4 44.6011 42.548 44.6011C39.6715 44.6011 37.8388 39.177 37.8388 30.5839C37.8388 19.9177 40.545 13.8845 45.3388 13.8845L45.3389 13.8848ZM15.5755 14.4939V36.2511C15.5755 43.7477 15.3837 47.343 14.8086 50.4516C14.2757 53.4382 13.5725 55.327 12.1238 57.3996L9.07683 53.2552C10.5257 51.305 11.2287 49.5992 11.6761 46.9773C12.145 44.2958 12.2943 41.1875 12.2943 33.0211V14.4942H15.5755V14.4939ZM54.7157 13.7015C57.9969 13.7015 59.9999 19.6136 59.9999 29.1818C59.9999 38.9946 57.912 45.1498 54.5878 45.1498C51.3064 45.1498 49.2822 39.238 49.2822 29.7308C49.2824 19.8566 51.3706 13.7018 54.7157 13.7018V13.7015ZM21.9042 13.8238C23.5875 13.8238 24.6954 15.1032 25.1854 17.6021C25.4624 19.0039 25.5475 20.8321 25.5475 24.7331V43.8084C24.0772 44.4178 22.2237 44.8448 20.8601 44.8448C18.1116 44.8448 16.8755 42.1012 16.8755 36.0074C16.8755 29.4248 18.5161 26.3779 22.5433 25.4025V23.3303C22.5433 21.6241 22.2451 21.0151 21.414 21.0151C20.1996 21.0151 18.8359 21.9898 17.5574 23.8797V16.627C19.0065 14.6775 20.3913 13.8241 21.9042 13.8241V13.8238ZM10.3555 0V43.4437C8.6723 44.3578 7.43633 44.7235 6.09419 44.7235C2.08828 44.7235 0.000244141 39.543 0.000244141 29.6088C0.000244141 20.0403 2.21625 13.8245 5.64665 13.8245C6.17927 13.8245 6.58415 13.9458 7.07422 14.3115V0H10.3555ZM32.302 13.8241C33.9852 13.8241 35.1998 14.9209 35.9244 17.0541C36.6062 19.0649 36.8192 21.2588 36.8192 25.9522V44.3574H33.5378V26.3179C33.5378 22.7222 33.1117 21.3808 31.9399 21.3808C31.4924 21.3808 31.0877 21.5028 30.427 22.0512V44.3574H27.1457V15.9566C29.0846 14.4942 30.6826 13.8241 32.302 13.8241ZM22.6925 31.559C20.5191 32.1684 19.8159 33.1438 19.8159 35.5813C19.8159 37.4095 20.2209 38.2629 21.1158 38.2629C21.6059 38.2629 22.0533 38.1412 22.6925 37.8365V31.559ZM54.6733 21.2591C53.3733 21.2591 52.6273 24.2457 52.6273 29.4255C52.6275 34.6063 53.3733 37.5925 54.6515 37.5925C55.9089 37.5925 56.6547 34.6059 56.6547 29.4255C56.6547 24.3064 55.9301 21.2591 54.6733 21.2591ZM5.96634 21.3808C4.3044 21.3808 3.34546 24.3064 3.34546 29.4255C3.34546 34.4232 4.26186 37.1658 5.94501 37.1658C6.30712 37.1658 6.60548 37.1048 7.07422 36.9225V21.8682C6.69067 21.5028 6.3711 21.3808 5.96634 21.3808ZM42.3774 22.7819C41.5894 24.0624 41.1842 26.3786 41.1842 29.6692C41.1842 34.3626 41.9941 37.0438 43.4429 37.0438C43.8903 37.0438 44.2527 36.7998 44.6786 36.4344V33.2048C44.6786 32.1077 44.6575 30.8883 44.6575 29.6088L44.6363 25.2818L44.6149 22.1735V21.4418H44.2739C43.6349 21.3808 42.8891 21.8682 42.3776 22.7822L42.3774 22.7819ZM15.5755 0.0502793V9.67978H12.2943V0.0499441H15.5755V0.0502793Z" fill="#092E20"/>
<path d="M45.3389 13.8848C46.7452 13.8848 48.0451 14.3108 49.6218 15.2249L48.4982 21.9952C47.6246 21.5075 48.4283 21.9298 47.7682 21.7472V22.7226L47.8106 26.6832L47.8317 31.803C47.853 33.0825 47.853 34.3626 47.8744 35.6423V38.2022C47.8744 46.2473 47.6401 50.0256 46.9369 53.1335C45.9143 57.7049 44.1457 59.9598 41.6315 59.9598C40.353 59.9598 39.2453 59.4114 38.0945 58.1313V49.4772H38.0947C39.2455 51.1834 40.3959 51.9754 41.6103 51.9754C43.7622 51.9754 44.6785 49.4772 44.6785 43.504V43.3213C44.0394 44.2351 43.4 44.6011 42.548 44.6011C39.6715 44.6011 37.8388 39.177 37.8388 30.5839C37.8388 19.9177 40.545 13.8845 45.3388 13.8845L45.3389 13.8848ZM15.5755 14.4939V36.2511C15.5755 43.7477 15.3837 47.343 14.8086 50.4516C14.2757 53.4382 13.5725 55.327 12.1238 57.3996L9.07683 53.2552C10.5257 51.305 11.2287 49.5992 11.6761 46.9773C12.145 44.2958 12.2943 41.1875 12.2943 33.0211V14.4942H15.5755V14.4939ZM54.7157 13.7015C57.9969 13.7015 59.9999 19.6136 59.9999 29.1818C59.9999 38.9946 57.912 45.1498 54.5878 45.1498C51.3064 45.1498 49.2822 39.238 49.2822 29.7308C49.2824 19.8566 51.3706 13.7018 54.7157 13.7018V13.7015ZM21.9042 13.8238C23.5875 13.8238 24.6954 15.1032 25.1854 17.6021C25.4624 19.0039 25.5475 20.8321 25.5475 24.7331V43.8084C24.0772 44.4178 22.2237 44.8448 20.8601 44.8448C18.1116 44.8448 16.8755 42.1012 16.8755 36.0074C16.8755 29.4248 18.5161 26.3779 22.5433 25.4025V23.3303C22.5433 21.6241 22.2451 21.0151 21.414 21.0151C20.1996 21.0151 18.8359 21.9898 17.5574 23.8797V16.627C19.0065 14.6775 20.3913 13.8241 21.9042 13.8241V13.8238ZM10.3555 0V43.4437C8.6723 44.3578 7.43633 44.7235 6.09419 44.7235C2.08828 44.7235 0.000244141 39.543 0.000244141 29.6088C0.000244141 20.0403 2.21625 13.8245 5.64665 13.8245C6.17927 13.8245 6.58415 13.9458 7.07422 14.3115V0H10.3555ZM32.302 13.8241C33.9852 13.8241 35.1998 14.9209 35.9244 17.0541C36.6062 19.0649 36.8192 21.2588 36.8192 25.9522V44.3574H33.5378V26.3179C33.5378 22.7222 33.1117 21.3808 31.9399 21.3808C31.4924 21.3808 31.0877 21.5028 30.427 22.0512V44.3574H27.1457V15.9566C29.0846 14.4942 30.6826 13.8241 32.302 13.8241ZM22.6925 31.559C20.5191 32.1684 19.8159 33.1438 19.8159 35.5813C19.8159 37.4095 20.2209 38.2629 21.1158 38.2629C21.6059 38.2629 22.0533 38.1412 22.6925 37.8365V31.559ZM54.6733 21.2591C53.3733 21.2591 52.6273 24.2457 52.6273 29.4255C52.6275 34.6063 53.3733 37.5925 54.6515 37.5925C55.9089 37.5925 56.6547 34.6059 56.6547 29.4255C56.6547 24.3064 55.9301 21.2591 54.6733 21.2591ZM5.96634 21.3808C4.3044 21.3808 3.34546 24.3064 3.34546 29.4255C3.34546 34.4232 4.26186 37.1658 5.94501 37.1658C6.30712 37.1658 6.60548 37.1048 7.07422 36.9225V21.8682C6.69067 21.5028 6.3711 21.3808 5.96634 21.3808ZM42.3774 22.7819C41.5894 24.0624 41.1842 26.3786 41.1842 29.6692C41.1842 34.3626 41.9941 37.0438 43.4429 37.0438C43.8903 37.0438 44.2527 36.7998 44.6786 36.4344V33.2048C44.6786 32.1077 44.6575 30.8883 44.6575 29.6088L44.6363 25.2818L44.6149 22.1735V21.4418H44.2739C43.6349 21.3808 42.8891 21.8682 42.3776 22.7822L42.3774 22.7819ZM15.5755 0.0502793V9.67978H12.2943V0.0499441H15.5755V0.0502793Z" fill="#41B883" fill-opacity="0.65"/>
</svg>
