<svg width="60" height="60" viewBox="0 0 60 60" fill="none" xmlns="http://www.w3.org/2000/svg">
<g clip-path="url(#clip0_44_2)">
<path d="M15.0003 60C23.2802 60 30 55.52 30 50V40H15.0003C6.72048 40 0.000610352 44.48 0.000610352 50C0.000610352 55.52 6.72048 60 15.0003 60Z" fill="#0ACF83"/>
<path d="M0.000610352 30C0.000610352 24.48 6.72048 20 15.0003 20H30V40H15.0003C6.72048 40 0.000610352 35.52 0.000610352 30Z" fill="#A259FF"/>
<path d="M0.000610352 10C0.000610352 4.48 6.72048 0 15.0003 0H30V20H15.0003C6.72048 20 0.000610352 15.52 0.000610352 10Z" fill="#F24E1E"/>
<path d="M30 0H44.9997C53.2795 0 59.9994 4.48 59.9994 10C59.9994 15.52 53.2795 20 44.9997 20H30V0Z" fill="#FF7262"/>
<path d="M59.9994 30C59.9994 35.52 53.2795 40 44.9997 40C36.7199 40 30 35.52 30 30C30 24.48 36.7199 20 44.9997 20C53.2795 20 59.9994 24.48 59.9994 30Z" fill="#1ABCFE"/>
</g>
<defs>
<clipPath id="clip0_44_2">
<rect width="60" height="60" fill="white"/>
</clipPath>
</defs>
</svg>
