<svg width="60" height="60" viewBox="0 0 60 60" fill="none" xmlns="http://www.w3.org/2000/svg">
<path d="M17.9301 37.0853C15.6449 35.6866 13.2068 34.3461 11.5411 32.4573C8.03464 29.1265 5.33561 25.271 3.4904 21.2187C2.37478 18.5834 1.99276 15.7583 0.553714 13.2254C-0.949549 11.3851 0.812695 9.37481 3.40298 8.79013C4.55538 8.61725 6.58294 7.77068 4.13539 8.37652C1.94073 9.62867 1.72932 7.23852 3.9793 7.08715C5.5149 6.92867 6.08021 5.95098 5.55451 5.07086C3.90547 4.23378 9.55173 3.31536 6.71044 2.06667C3.75266 -0.417224 10.8494 -0.895401 9.09822 1.92606C8.67963 4.09536 14.0589 1.52758 12.8097 4.03317C14.0789 5.23664 17.5609 4.30764 17.4735 5.99494C19.3218 6.09378 19.9562 7.30308 21.6894 7.39609C23.4887 8.02819 26.7471 8.52533 27.3584 10.1019C25.5748 11.2003 21.4459 7.83269 21.2464 10.8737C21.786 15.367 21.6484 19.9954 23.7603 24.274C24.7592 26.8644 27.1821 28.9035 29.3691 30.9214C31.4627 32.8972 34.2979 34.289 37.1884 35.4601C39.7232 36.3901 42.4559 37.0066 45.2192 37.3943C46.3395 36.7275 48.3178 34.2484 50.0648 35.293C50.1492 36.4691 46.5971 37.7497 49.8982 37.6197C51.8383 37.1641 53.1824 38.7858 54.7792 37.3226C56.2506 38.6787 60.894 36.4569 59.8475 39.2284C58.4314 39.9393 56.3671 39.5098 54.9496 40.4878C52.6125 39.5791 50.7515 41.2999 48.1631 41.0829C45.2897 41.4834 42.3652 41.6446 39.4522 41.6479C34.672 41.3545 29.7909 41.2306 25.2436 39.9354C22.6813 39.3562 20.1817 38.2208 17.9301 37.0853V37.0853ZM21.9669 38.4473C24.4681 39.288 26.9143 40.1752 29.6559 40.4435C34.0054 40.9135 38.4972 41.6384 42.8619 40.9779C40.8866 40.2839 38.8436 41.2474 36.8758 40.4818C34.5156 40.8765 31.9825 40.3804 29.5821 40.1359C26.854 39.1904 23.9089 38.5405 21.354 37.3118C18.16 36.4046 23.0047 38.4759 23.8674 38.6442C25.8629 39.5251 21.6725 38.192 21.0807 37.8259C19.4092 37.0961 19.1964 37.2487 20.9157 37.9894C21.2619 38.1469 21.6038 38.3127 21.9669 38.4473V38.4473ZM17.2068 35.8297C19.6314 36.5286 17.196 34.5035 16.0865 34.6206C15.5943 33.9562 14.2061 33.5364 15.1853 33.1799C13.4245 33.6559 13.3401 31.3708 12.5128 31.6977C10.6491 31.2398 11.7876 29.6178 9.56696 28.6211C9.36447 27.5714 7.36152 26.6616 6.72403 25.079C6.44208 24.2681 4.46046 21.9416 5.67732 24.1069C6.71325 26.1914 8.53549 27.9781 10.0528 29.761C11.2298 31.4588 12.6215 33.2348 14.7656 34.2938C15.4891 34.834 16.1861 35.6603 17.2066 35.8297H17.2068ZM10.2246 29.8635C10.3085 29.5784 10.6676 30.4799 10.2246 29.8635V29.8635ZM20.1111 36.6668C20.6474 36.4797 19.3386 36.4308 20.1111 36.6668V36.6668ZM21.426 37.0403C21.2898 36.5249 20.8253 37.3288 21.426 37.0403V37.0403ZM23.0736 37.5746C23.8566 36.9934 21.8642 37.2081 23.0736 37.5746V37.5746ZM25.8966 38.7989C26.3731 38.2516 24.3715 38.5928 25.8966 38.7989V38.7989ZM20.476 35.8585C21.6924 35.2454 18.902 35.85 20.476 35.8585V35.8585ZM21.7112 36.3378C21.6758 36.0145 21.2713 36.4832 21.7112 36.3378V36.3378ZM27.8857 39.3369C28.8788 39.8247 33.6836 40.4054 30.6752 39.5371C30.1706 39.6196 25.0965 38.4197 27.8857 39.3369V39.3369ZM18.0836 33.3958C17.987 33.0717 16.5414 33.0369 18.0836 33.3958V33.3958ZM20.957 34.7007C21.7063 34.294 19.4045 34.387 20.957 34.7007V34.7007ZM23.3752 35.8538C24.4496 35.539 21.6345 35.5377 23.3752 35.8538V35.8538ZM16.9127 32.4048C18.0775 33.0998 21.6118 32.4942 18.6965 31.9899C17.3709 31.44 14.3824 31.0635 16.4195 32.3214L16.9127 32.4048ZM25.014 36.2519C25.4996 35.609 22.9784 35.8844 25.014 36.2519V36.2519ZM22.5524 34.73C25.4 35.3563 20.1571 33.3276 21.8492 34.4988L22.2249 34.6312L22.5524 34.73ZM27.4878 36.9495C30.1849 36.9695 25.0508 36.6599 27.4878 36.9495V36.9495ZM15.8753 31.1906C15.7694 30.7996 15.2102 31.223 15.8753 31.1906V31.1906ZM32.05 38.941C32.122 38.2352 31.1702 39.4669 32.05 38.941V38.941ZM20.4791 33.3838C20.315 33.0117 19.6363 33.3683 20.4791 33.3838V33.3838ZM16.131 30.9451C17.6793 30.8725 14.01 30.4144 16.131 30.9451V30.9451ZM10.98 28.3547C10.7871 27.7766 9.29579 27.3163 10.98 28.3547V28.3547ZM24.5021 35.032C24.2185 34.7802 24.3685 35.0867 24.5021 35.032V35.032ZM32.9172 39.0509C32.8914 38.6656 32.459 39.1961 32.9172 39.0509V39.0509ZM23.7573 34.4333C23.9091 33.9373 22.4363 34.2828 23.7573 34.4333V34.4333ZM17.4873 31.341C18.64 31.2455 15.6405 30.7352 17.4873 31.341V31.341ZM28.0931 36.4691C29.8891 35.9156 26.3429 36.1994 28.0931 36.4691V36.4691ZM22.5772 33.5557C24.646 33.7629 20.1144 32.4597 22.122 33.4387L22.5772 33.5557ZM29.7677 36.996C31.7006 36.0982 31.0631 39.1009 33.0464 37.25C35.0017 36.1387 31.3572 38.6238 33.7666 37.4481C35.5106 36.5404 38.0851 37.8785 39.7114 38.3138C40.8805 38.2697 42.0179 39.1009 43.2176 38.595C45.5257 38.1108 38.7029 37.8774 40.4912 37.0197C38.3795 37.4982 36.8195 36.4498 35.7803 35.3968C33.4108 34.9709 30.6722 34.029 29.4891 32.3964C29.0063 31.7847 30.1851 32.4836 29.0723 31.4818C27.6455 30.4943 26.933 29.372 25.9749 28.1712C24.83 27.6965 24.6952 26.2977 24.5801 28.1249C24.5895 26.9716 23.1978 26.1952 22.8575 26.5173C22.8514 25.4069 24.3474 25.9638 23.3005 25.1422C23.0755 23.9913 22.3334 22.7918 22.111 21.4919C21.7651 20.8658 22.0618 19.5243 20.9282 20.9421C20.5157 22.4411 20.7917 19.1008 21.4339 20.2016C22.2767 19.0782 21.1302 19.2104 21.0842 19.3656C21.6331 18.4177 21.4323 17.0723 20.9403 17.5852C21.2331 16.5797 21.4032 13.8859 20.5037 14.3641C21.0491 13.3124 21.5382 9.55317 19.1685 10.987C18.2092 10.9976 16.5466 11.2578 15.7619 11.5618C18.2247 12.6185 15.5135 11.9433 14.5096 11.7752C14.3793 12.7531 13.3863 12.3309 12.1448 12.3403C14.1281 12.5311 11.1792 13.9179 10.0439 13.3791C8.56643 13.9277 11.3175 15.2991 10.073 15.7235C10.2265 16.3616 7.81081 15.4924 7.99948 16.9687C6.5663 16.4986 7.80331 18.7193 8.52049 17.9681C10.9589 18.4821 10.237 19.652 10.2982 20.7644C9.90118 21.4118 8.33651 19.2416 9.95016 19.3419C8.67658 17.7329 8.54205 18.7598 7.48433 19.5075C7.23918 19.5613 10.1817 20.5711 8.3351 21.0697C9.95954 21.2654 10.0071 22.372 10.3383 23.0721C11.3144 23.8636 11.1134 22.1977 12.2831 23.1497C11.5425 22.3016 8.36557 20.7606 10.9237 21.2548C10.9097 20.4021 10.4606 19.7138 11.2453 19.7304C12.0225 18.6369 10.4316 22.428 12.1819 21.0376C12.6658 20.8731 12.7872 19.9428 13.6577 21.1259C14.9219 22.0943 14.1145 22.7951 12.3304 21.9081C12.6492 22.7512 14.7166 23.0515 14.3273 24.3695C14.7393 25.5287 15.3159 25.1016 15.8184 25.0348C16.2121 26.1606 16.4364 25.333 16.4547 24.7963C18.2584 25.0972 17.8354 25.927 18.4007 26.5066C19.6436 26.9428 16.6216 23.5478 18.7551 25.4856C20.9999 27.0633 19.5979 27.7215 17.5827 27.4689C18.8577 27.3887 19.2681 28.8106 20.8639 28.7605C22.3182 29.2994 23.3037 31.3673 20.7964 30.5061C19.9274 29.8956 16.8482 29.1431 19.3635 30.3035C21.6838 31.1406 23.529 31.6403 25.7679 32.6911C27.3696 33.5807 28.062 34.6 28.669 34.8019C27.3221 35.3025 24.6111 34.4023 26.6246 34.1269C25.3679 33.9491 23.9551 33.4543 25.1579 34.6718C26.1816 35.3373 28.7824 35.2667 29.25 35.3419C28.8546 36.0194 28.1759 36.0732 29.2652 36.1255C28.0498 36.63 29.6562 36.7087 29.768 36.996H29.7677ZM27.282 31.5331C26.5418 30.9309 26.3504 29.804 27.1503 30.7839C27.5611 30.9128 28.4639 32.6267 27.282 31.5331ZM35.3788 35.5352C35.8401 35.5115 35.3924 35.808 35.3788 35.5352V35.5352ZM26.1146 30.0568C26.085 29.1467 26.3808 30.7589 26.1146 30.0568V30.0568ZM25.3097 29.2148C24.3781 27.816 26.4821 29.6107 25.3097 29.2148V29.2148ZM15.5563 23.9773C16.1036 23.8636 15.8261 24.7044 15.5563 23.9773V23.9773ZM23.319 27.2506C23.6546 26.2691 23.713 28.0737 23.319 27.2506V27.2506ZM17.8354 24.2835C17.4494 23.7422 18.6433 24.7917 17.8354 24.2835V24.2835ZM22.5404 25.457C21.6592 23.9211 23.1657 24.6174 22.7366 25.7087L22.5404 25.457ZM14.4255 21.2461C14.0318 20.7418 13.3802 19.263 13.5902 18.8112C13.7786 19.5469 15.5995 21.9761 14.482 19.8177C13.2485 18.0086 15.9581 20.4042 16.237 20.8563C16.3673 21.3048 15.4752 20.7336 16.079 21.7864C14.9772 20.5879 15.4291 22.4484 14.4255 21.2461ZM11.9182 19.9011C12.0208 18.7288 12.4915 20.7048 11.9182 19.9011V19.9011ZM13.0462 20.2038C13.5841 19.3193 13.9579 21.437 13.0462 20.2038V20.2038ZM10.332 18.5703C9.39845 17.8474 8.72252 17.1821 10.3762 18.1217C11.0123 18.1408 8.96041 16.6086 10.5298 17.6351C12.1786 17.8691 11.3433 19.7402 10.332 18.5703ZM11.7572 18.5417C12.3 18.1231 12.0454 18.9531 11.7572 18.5417V18.5417ZM12.6354 18.7598C11.8122 17.5613 13.6331 19.2631 12.6354 18.7598V18.7598ZM10.8914 17.4637C8.17737 15.5827 14.3013 18.4461 11.3344 17.8117L10.8914 17.4637ZM18.669 20.9791C17.4937 20.4316 18.3564 17.1214 18.7581 19.3848C19.9 19.0972 18.6948 20.5547 19.5456 20.5403C19.4125 21.4594 19.0309 21.7903 18.669 20.9791ZM21.5457 22.3027C21.6606 21.3048 21.7878 22.9852 21.5457 22.3027V22.3027ZM21.0463 21.9176C21.1749 21.4919 21.0585 22.4196 21.0463 21.9176V21.9176ZM11.423 16.8458C9.67923 14.9734 16.4913 18.7394 12.5404 17.3205C12.1279 17.2359 11.6301 17.206 11.423 16.8458ZM16.9633 19.1309C16.798 17.5543 17.3312 19.3917 16.9633 19.1309V19.1309ZM21.1686 21.2306C21.4935 20.3328 21.1935 21.8247 21.1686 21.2306V21.2306ZM11.6913 16.1315C12.7275 15.9586 15.9855 17.547 12.994 16.5847C12.6616 16.2983 11.9519 16.4284 11.6913 16.1313V16.1315ZM20.5907 19.5827C20.7015 17.9705 21.2103 18.6203 20.5953 19.8141L20.5907 19.5825V19.5827ZM12.4622 15.57C12.885 15.0879 11.34 13.3912 12.6841 14.9616C13.2654 15.3205 14.3653 15.5627 13.3938 15.714C14.9217 16.7625 13.0216 15.998 12.4622 15.57ZM20.1507 19.0795C20.4423 17.243 20.4085 20.1551 20.1507 19.0795V19.0795ZM11.5793 13.8741C11.9027 13.7665 11.7508 14.2089 11.5793 13.8741V13.8741ZM13.5855 14.8031C14.1016 13.9598 14.5371 15.7427 13.5855 14.8031V14.8031ZM19.2421 17.2512C19.2374 16.9281 19.3492 17.7223 19.2421 17.2512V17.2512ZM18.914 16.6873C18.1293 15.1799 19.6452 17.485 18.914 16.6873V16.6873ZM18.4326 15.6985C18.3013 15.0759 18.8802 16.4809 18.4326 15.6985V15.6985ZM19.2172 14.7064C18.6779 13.968 19.8981 11.4507 20.0345 13.0118C19.4657 14.2283 19.8704 14.9081 20.2656 13.2766C20.9985 11.9935 20.1078 15.8109 19.2172 14.7064ZM20.0235 10.9631C20.2583 10.7388 20.0757 11.2335 20.0235 10.9631V10.9631ZM18.6768 31.6093C18.3578 31.3923 18.7178 31.7466 18.6768 31.6093V31.6093ZM21.4506 32.7006C22.9937 33.0095 22.9862 32.5144 21.5912 32.3665C20.8419 31.8241 18.474 31.248 20.5937 32.2997C20.7334 32.5766 21.1764 32.5693 21.4506 32.7006ZM15.9733 29.8693C16.8222 30.3633 19.1746 31.267 17.1838 30.058C17.8551 29.4507 15.8995 29.1278 16.548 28.7213C14.8973 27.9351 15.2449 28.0055 16.4024 28.0306C14.4192 27.34 16.6888 27.3925 16.5817 27.0385C15.817 26.9214 12.7823 25.9888 14.5678 27.1148C12.7533 26.3955 14.1353 27.383 13.5869 27.2793C11.7307 26.8857 15.2392 28.379 13.2925 28.008C14.3564 28.6638 16.157 29.6895 13.7416 28.7019C13.4245 29.0585 15.4706 29.5988 15.9731 29.8693H15.9733ZM18.8741 31.1669C22.4007 32.0506 17.1437 30.0852 18.8741 31.1669V31.1669ZM33.7249 38.167C33.7708 37.6221 33.2435 38.632 33.7249 38.167V38.167ZM35.2513 38.6667C36.0651 38.0539 35.2851 39.6446 36.5999 38.5166C36.6135 37.709 36.5601 37.2323 35.0889 38.2135C34.6825 38.3889 34.5021 39.1317 35.2513 38.6669V38.6667ZM11.0215 26.8264C10.7714 26.0619 9.26954 26.0652 11.0215 26.8264V26.8264ZM12.6504 27.6573C12.045 26.8764 10.4909 26.9503 12.6504 27.6573V27.6573ZM21.924 32.0089C22.8301 32.6351 26.082 32.4681 23.0232 32.0866C22.5709 31.5653 20.1479 31.6906 21.924 32.0089ZM34.6703 38.1352C36.0634 37.2252 33.3203 38.5407 34.6703 38.1352V38.1352ZM37.5686 39.6841C37.5775 39.392 36.9679 39.8118 37.5686 39.6841V39.6841ZM37.5733 39.2751C39.1164 38.0039 36.0789 39.3502 37.5733 39.2751V39.2751ZM7.01207 24.2145C5.69724 22.7548 6.19529 22.0988 4.92639 20.9063C4.68546 19.9941 2.75025 17.9262 3.92563 20.1168C5.00139 21.3989 5.32014 23.3831 7.01231 24.2145H7.01207ZM37.0888 38.8708C39.9289 37.4432 35.9242 38.2494 37.0888 38.8708V38.8708ZM39.2561 39.5313C40.6782 38.5819 38.3563 39.3332 39.2561 39.5313V39.5313ZM10.5384 25.2124C10.9448 24.7414 9.48728 25.1517 10.5384 25.2124V25.2124ZM38.8037 39.0805C40.1799 38.3902 38.4866 38.4962 38.5541 39.1436L38.8037 39.0805ZM20.1247 29.9194C20.0774 29.452 19.397 29.9588 20.1247 29.9194V29.9194ZM21.2788 30.4359C20.911 29.8587 20.7149 30.5266 21.2788 30.4359V30.4359ZM41.0122 39.547C42.7761 38.5569 39.9442 39.3571 40.6428 39.7354L41.0122 39.547ZM40.3365 39.2929C41.7739 38.3566 38.8206 39.7078 40.3365 39.2929V39.2929ZM43.7874 41.0804C44.7518 40.5783 42.6153 40.9182 43.7874 41.0804V41.0804ZM11.423 24.8727C12.7148 25.0979 16.589 27.3495 14.3041 25.029C13.1334 24.7594 13.8353 22.5329 12.6415 22.9264C13.443 23.9687 13.3 24.4109 11.6173 23.7553C9.50415 22.9514 10.4297 24.1525 10.8438 24.4841C10.2795 24.5842 11.5884 24.8645 11.4227 24.8725L11.423 24.8727ZM5.53318 21.2535C5.76451 20.508 3.40134 17.1558 4.41757 19.5732C4.78366 20.08 4.74569 21.0398 5.53318 21.2535V21.2535ZM16.3438 26.4396C15.6773 26.0069 16.3117 26.3776 16.3438 26.4396V26.4396ZM17.9821 26.7369C17.9821 25.9472 16.1709 26.4159 17.9821 26.7369V26.7369ZM32.1893 33.7047C31.9181 33.1655 31.1182 33.6927 32.1893 33.7047V33.7047ZM32.8713 34.0921C32.7698 33.7904 32.4771 34.1506 32.8713 34.0921V34.0921ZM38.5018 36.8528C39.043 36.5417 37.8259 36.8125 38.5018 36.8528V36.8528ZM8.47432 21.8379C10.0235 21.3714 6.81426 21.505 8.47432 21.8379V21.8379ZM30.9384 32.8494C30.9204 32.0696 29.9501 33.044 30.9384 32.8494V32.8494ZM7.86261 20.7274C8.85728 20.4666 6.94153 20.556 7.86261 20.7274V20.7274ZM10.7501 21.8162C10.733 21.5599 10.4452 21.9141 10.7501 21.8162V21.8162ZM45.9762 38.6249C47.2559 38.4234 50.1724 39.1319 50.6428 38.3616C49.0889 38.3317 45.2682 37.5075 45.0872 38.5569L45.4275 38.5988L45.9764 38.6249H45.9762ZM11.6679 21.9963C11.6913 21.2056 10.8757 21.9666 11.6679 21.9963V21.9963ZM4.07609 17.8976C3.73133 16.3912 2.76408 17.6696 4.07609 17.8976V17.8976ZM5.88591 18.2517C5.90912 17.7675 4.2289 17.8164 5.88591 18.2517V18.2517ZM6.92043 18.6476C6.62161 18.4591 6.68747 18.8847 6.92043 18.6476V18.6476ZM13.4322 21.8973C13.739 21.6777 12.7059 21.7352 13.4322 21.8973V21.8973ZM6.23232 17.7557C6.0563 16.618 4.13422 17.5852 6.23232 17.7557V17.7557ZM2.51869 15.8809C2.46642 15.3562 2.15682 16.0788 2.51869 15.8809V15.8809ZM3.07181 15.5568C2.98157 14.934 2.59674 15.6352 3.07181 15.5568V15.5568ZM6.12216 16.9733C7.41261 16.5797 3.77235 16.1576 5.85849 16.8994L6.12216 16.9733ZM46.9559 36.6001C47.7818 36.011 45.9075 36.4177 46.9559 36.6001V36.6001ZM51.8892 38.5892C52.2203 37.8285 51.0553 38.6895 51.8892 38.5892V38.5892ZM6.43388 15.7295C6.57052 14.9927 5.41037 15.8762 6.43388 15.7295V15.7295ZM2.0926 13.4663C1.85964 12.4264 1.89174 10.6005 4.12179 11.2171C1.14527 11.6774 6.1831 14.0968 5.54701 12.1864C6.79903 12.2344 7.9962 11.6107 7.33855 12.5561C9.80602 12.3451 11.5151 10.6804 13.8979 10.9142C15.7537 10.7224 17.7829 10.5779 19.783 9.99597C21.4274 9.90406 23.0103 8.52661 22.1096 7.70977C19.8674 7.56205 17.5192 7.78016 15.0412 8.16424C12.2951 8.60776 9.80016 9.45196 7.02895 9.81469C4.32687 10.0974 7.57152 10.5921 6.79739 10.703C5.38881 11.0834 8.47877 11.3399 6.61505 11.7416C5.46428 11.5713 4.2657 11.2636 4.75765 10.3191C2.17065 10.5814 -0.1037 11.4161 1.94096 13.4648L2.09284 13.4659L2.0926 13.4663ZM8.32877 10.9952C8.93416 9.25664 11.5776 12.4264 9.32181 11.2266C9.05345 11.069 8.60885 10.9414 8.32877 10.9952ZM8.44643 10.1519C9.32181 9.64527 8.91095 10.4371 8.44643 10.1519V10.1519ZM9.55759 10.1665C9.63774 9.36624 12.1036 10.5898 9.96399 10.4539L9.55759 10.1663V10.1665ZM11.078 9.69068C11.6344 9.18478 11.2392 10.1389 11.078 9.69068V9.69068ZM11.4675 9.48807C12.393 8.62345 16.7041 8.93567 13.5485 9.40308C12.7024 8.90703 12.0544 9.69524 11.4675 9.48807ZM17.0948 8.81293C16.9555 6.45032 19.8918 9.65129 17.0948 8.81293V8.81293ZM18.692 8.80564C19.2756 7.61567 20.9584 8.32764 18.9632 8.566C19.0058 8.69366 18.9034 9.1815 18.692 8.80564ZM5.80459 15.119C7.54832 14.2877 3.95305 14.3977 5.80459 15.119V15.119ZM7.09481 15.3969C7.70652 14.8914 5.76451 15.1917 7.09481 15.3969V15.3969ZM3.29423 13.2993C4.29031 12.7029 2.11416 13.0727 3.29423 13.2993V13.2993ZM54.8008 38.3721C54.8298 37.6804 54.0391 38.6833 54.8008 38.3721V38.3721ZM49.567 35.5923C49.7156 34.7971 48.8944 35.6616 49.567 35.5923V35.5923ZM56.2398 38.6406C57.6332 38.6442 60.4618 38.3028 57.4304 38.3041C56.954 38.3616 54.6583 38.3497 56.2398 38.6406ZM8.22917 14.9089C9.3572 14.8492 9.99305 13.9416 8.00979 13.993C4.93718 13.7462 10.7208 14.8124 7.61605 14.5071C7.19933 14.7217 8.20432 14.9685 8.22917 14.9089ZM9.2222 15.3002C9.10408 14.7372 8.87252 15.5993 9.2222 15.3002V15.3002ZM10.4006 12.8554C10.8895 12.383 9.72329 12.729 10.4006 12.8554V12.8554ZM6.6488 7.97694C8.66276 7.44515 11.4152 6.84642 12.3656 8.23956C11.3983 7.33445 11.9749 6.44229 12.8882 7.76722C14.1801 9.10655 14.8265 7.15791 13.9868 6.70819C14.9449 7.63354 16.0328 8.07141 14.6273 6.76691C16.1554 5.33694 11.5699 6.95402 10.5279 6.93725C10.0268 7.11232 5.35084 7.86497 6.64903 7.97694H6.6488ZM7.82886 6.21943C8.97705 5.54576 11.7998 6.6212 9.98836 5.54904C9.81071 5.42758 6.02232 6.36241 7.82886 6.21943ZM12.0145 6.35402C13.357 6.38028 11.4354 4.94922 13.0352 5.59791C12.7732 4.93025 11.1717 4.80497 10.3887 4.53797C9.94571 5.14855 11.2894 6.36241 12.0145 6.35402V6.35402ZM8.56291 3.39761C9.02744 2.90758 7.74777 3.64691 8.56291 3.39761V3.39761ZM10.2738 3.71585C12.439 3.49299 9.72165 2.99092 9.83649 3.69816L10.2736 3.71585H10.2738ZM7.07934 1.77214C5.55428 0.22308 9.94688 2.0322 8.39721 0.410192C7.09316 -0.396981 5.84115 1.32022 7.07934 1.77214V1.77214ZM26.6424 9.97098C27.3417 9.00715 23.7568 8.67105 26.172 9.62959C26.3942 9.68703 26.344 10.0376 26.6424 9.97098ZM12.4474 45.8654C12.2927 46.3407 12.1969 47.1382 12.161 48.2576C12.161 48.4775 12.0337 48.5877 11.7785 48.5877C11.5233 48.5877 11.3456 48.4915 11.2451 48.3002C10.9718 47.7827 10.713 47.4218 10.466 47.2157C10.1749 46.9749 9.78774 46.8294 9.3047 46.7798C8.78557 46.716 7.4923 46.6841 5.42467 46.6841C4.95124 46.6841 4.64116 46.7233 4.49585 46.8015C4.40468 46.8507 4.35921 46.9573 4.35921 47.1205V51.9367C4.35921 52.0998 4.49117 52.1774 4.75483 52.1707C5.566 52.1634 6.7409 52.1204 8.27979 52.043C8.58072 52.0142 8.78369 51.9382 8.88822 51.814C8.99369 51.69 9.09611 51.3697 9.19572 50.852C9.259 50.5684 9.47368 50.4584 9.8379 50.5226C10.1473 50.5722 10.2804 50.6822 10.2347 50.852C9.97922 51.8163 9.89672 53.0709 9.98789 54.6161C9.9975 54.7999 9.84727 54.8995 9.5372 54.9137C9.28173 54.9351 9.12236 54.8286 9.05908 54.5946C8.82283 53.7088 8.38245 53.2354 7.74097 53.1748C7.09879 53.115 6.05279 53.0847 4.60507 53.0847C4.44101 53.0847 4.35921 53.1305 4.35921 53.2228V58.0073C4.35921 58.3618 4.52726 58.6031 4.86405 58.7302C5.12889 58.8365 5.69795 58.9325 6.57192 59.0174C7.01887 59.0528 7.2141 59.2056 7.1602 59.4745C7.10512 59.7084 6.70481 59.8007 5.95716 59.7511C3.7986 59.6162 2.01737 59.6235 0.615119 59.7728C0.223014 59.8148 0.0277825 59.6908 0.0277825 59.4006C0.0277825 59.2159 0.223014 59.1097 0.615119 59.0815C1.50784 59.0032 1.95385 58.3936 1.95385 57.2528V48.1511C1.95385 47.6838 1.84651 47.3242 1.633 47.0723C1.41855 46.8207 1.01988 46.5918 0.437699 46.3864C0.0730163 46.2588 -0.0633883 46.0853 0.0275481 45.8654C0.0730163 45.731 0.14614 45.6562 0.245749 45.6424C0.336919 45.6208 0.578791 45.6351 0.969724 45.685C1.54394 45.7558 2.89697 45.7914 5.02811 45.7914C7.54269 45.7914 9.71462 45.7485 11.546 45.6637C12.1561 45.6349 12.4617 45.6741 12.4617 45.7804C12.4617 45.8092 12.457 45.8371 12.4474 45.8654V45.8654ZM21.3083 59.3621C21.3083 59.6457 21.1032 59.7697 20.6935 59.7342C19.4373 59.6419 17.8792 59.6557 16.0211 59.7763C15.6473 59.8051 15.4178 59.7976 15.3306 59.7557C15.2439 59.7128 15.2013 59.5961 15.2013 59.4041C15.2013 59.2345 15.449 59.0911 15.9454 58.9737C16.4425 58.8571 16.69 58.5079 16.69 57.9269V48.3046C16.69 47.7301 16.5829 47.3085 16.3694 47.039C16.1549 46.7696 15.7792 46.5606 15.242 46.4122C14.9594 46.3337 14.8178 46.2239 14.8178 46.0821C14.8178 45.8694 15.0229 45.71 15.4328 45.6037C16.0525 45.4478 16.6949 45.2072 17.3601 44.8808C17.9066 44.6255 18.253 44.4984 18.3981 44.4984C18.7349 44.4984 18.9041 44.6785 18.9041 45.0402C18.9041 45.0123 18.8858 45.3666 18.8488 46.1034C18.8223 46.805 18.8129 47.496 18.8223 48.177L18.8762 57.6712C18.8762 58.1038 19.0131 58.4176 19.2864 58.6126C19.5597 58.8073 20.0293 58.9367 20.6935 59.0003C21.1032 59.0355 21.3083 59.156 21.3083 59.3619V59.3621ZM33.6665 58.7351C33.6665 58.8843 33.3182 59.109 32.6217 59.4099C31.9244 59.7114 31.3664 59.862 30.9478 59.862C30.592 59.862 30.2782 59.7276 30.0049 59.4581C29.7316 59.1887 29.5397 59.0543 29.4307 59.0543C29.3489 59.0543 28.9163 59.1996 28.1323 59.4898C27.3497 59.7807 26.5613 59.9262 25.7689 59.9262C25.0222 59.9262 24.3978 59.7557 23.8969 59.4161C23.3504 59.0401 23.0771 58.5298 23.0771 57.8846C23.0771 56.6583 24.8808 55.7796 28.4883 55.248C29.107 55.1557 29.422 54.9608 29.4305 54.6632L29.4584 53.9825C29.5132 52.8203 28.8527 52.2393 27.477 52.2393C27.0851 52.2393 26.7141 52.5117 26.3628 53.0574C26.0129 53.6038 25.509 53.8976 24.8532 53.9404C24.1065 53.9966 23.7326 53.7522 23.7326 53.2066C23.7326 52.8661 24.2886 52.4698 25.3997 52.0157C26.566 51.541 27.6867 51.3032 28.7616 51.3032C30.6103 51.3032 31.5258 51.9876 31.5077 53.3556L31.4526 57.7356C31.4442 58.1964 31.6947 58.4266 32.2043 58.4266C32.3048 58.4266 32.4963 58.4091 32.7782 58.3735C33.0611 58.3381 33.2252 58.3202 33.2709 58.3202C33.5346 58.3202 33.6665 58.459 33.6665 58.7351V58.7351ZM29.4584 56.3114C29.4677 56.134 29.4145 56.0165 29.3006 55.9605C29.1867 55.9038 29.0077 55.8925 28.7616 55.9281C26.566 56.233 25.4682 56.7896 25.4682 57.5975C25.4682 58.4127 26.0375 58.8201 27.176 58.8201C27.6317 58.8201 28.1013 58.753 28.5832 58.6186C29.1488 58.4621 29.4307 58.2746 29.4307 58.0545L29.4584 56.3112V56.3114ZM43.8251 57.512C43.8251 58.2633 43.453 58.861 42.7112 59.3038C41.9689 59.7469 40.9557 59.9683 39.6709 59.9683C38.815 59.9683 37.9581 59.8976 37.1022 59.7557C36.3639 59.628 35.9359 59.5113 35.8176 59.405C35.7445 59.3052 35.7084 58.8203 35.7084 57.9482C35.7084 57.5725 35.8176 57.3774 36.0365 57.3635C36.2549 57.342 36.4419 57.4345 36.5966 57.6396C37.2796 58.5684 38.3821 59.0329 39.9034 59.0329C41.187 59.0329 41.8295 58.6852 41.8295 57.9903C41.8295 57.6861 41.6841 57.4306 41.3921 57.2253C41.0731 56.9913 40.4546 56.7183 39.5343 56.4064C38.204 55.946 37.3157 55.542 36.8697 55.1942C36.3866 54.8258 36.1455 54.3298 36.1455 53.7057C36.1455 52.9399 36.5235 52.345 37.2796 51.9197C37.9808 51.5083 38.9193 51.3032 40.0939 51.3032C40.8322 51.3032 41.506 51.3487 42.117 51.4412C42.7728 51.5335 43.1143 51.6466 43.1417 51.7815C43.2139 52.178 43.3648 52.7525 43.5926 53.5042C43.6201 53.5957 43.4919 53.6703 43.2101 53.727C42.9092 53.7766 42.7091 53.7374 42.6085 53.6103C41.8892 52.6956 40.9785 52.2385 39.8757 52.2385C38.6279 52.2385 38.0038 52.5504 38.0038 53.1741C38.0038 53.5217 38.1726 53.7978 38.5093 54.0032C38.8103 54.1804 39.516 54.4573 40.6274 54.8331C41.7934 55.2229 42.5858 55.5737 43.0053 55.8854C43.5519 56.2892 43.8251 56.8319 43.8251 57.512ZM59.9 59.3727C59.9 59.6207 59.6856 59.752 59.2576 59.7661C58.6199 59.7734 57.7857 59.8087 56.7573 59.8724C56.2469 59.9506 55.8824 59.9012 55.6642 59.7239C54.2247 58.519 53.0036 57.2572 52.0014 55.9385C51.9199 55.8254 51.8154 55.7687 51.6874 55.7687C51.5327 55.7687 51.2643 55.875 50.8818 56.0878C50.4529 56.2717 50.2394 56.5343 50.2394 56.8739C50.2394 57.1153 50.2479 57.4624 50.2669 57.9166C50.2851 58.3698 50.4302 58.6673 50.7035 58.8092C50.895 58.9089 51.3375 58.9864 52.0289 59.0433C52.4571 59.086 52.6715 59.21 52.6715 59.4154C52.6715 59.5786 52.6373 59.6798 52.5689 59.7181C52.5009 59.7571 52.3204 59.7661 52.0289 59.7447C51.1181 59.6813 49.579 59.7167 47.411 59.8511C46.8645 59.8864 46.5682 59.8332 46.5228 59.6915C46.5047 59.6422 46.4951 59.5711 46.4951 59.4788C46.4951 59.2596 46.7733 59.0926 47.3295 58.9799C47.8303 58.8799 48.0806 58.4229 48.0806 57.6079V48.3152C48.0806 47.7342 48.008 47.3302 47.8615 47.1035C47.6613 46.8126 47.2418 46.5858 46.6043 46.4227C46.3043 46.3452 46.1536 46.2353 46.1536 46.0934C46.1536 45.8873 46.3681 45.7279 46.7958 45.615C47.4844 45.4358 48.1409 45.1892 48.7495 44.8811C49.2509 44.6264 49.5609 44.4985 49.6786 44.4985C50.0526 44.4985 50.2394 44.6824 50.2394 45.0517C50.2394 45.0015 50.2347 45.3529 50.2251 46.1039C50.2153 46.7986 50.2109 47.4933 50.212 48.1881L50.2394 54.8435C50.2394 55.0281 50.3029 55.1196 50.4302 55.1196C50.5669 55.1196 50.7766 55.0281 51.0593 54.8435C51.8154 54.3827 52.7444 53.7803 53.8462 53.036C54.0653 52.859 54.1743 52.7171 54.1743 52.6108C54.1743 52.4196 53.8054 52.2843 53.0681 52.207C52.7493 52.178 52.5984 52.0401 52.6162 51.7919C52.6439 51.5439 52.8035 51.4376 53.0946 51.4729C53.7513 51.5441 54.7077 51.5831 55.964 51.5904C56.8389 51.597 57.7089 51.6008 58.5744 51.6008C58.8561 51.6081 58.9977 51.7388 58.9977 51.9943C58.9977 52.2351 58.7746 52.3664 58.3286 52.3879C57.6264 52.4085 56.9659 52.5325 56.3474 52.7599C55.4819 53.0641 54.5568 53.5994 53.5729 54.3652C53.5007 54.4078 53.4637 54.4609 53.4637 54.5246C53.4637 54.6236 53.6184 54.8614 53.9287 55.2371C55.0673 56.5839 56.1423 57.6006 57.1529 58.2885C57.8 58.7207 58.4054 58.9368 58.97 58.9368C59.3896 58.9368 59.6492 58.9598 59.7488 59.0061C59.8496 59.0523 59.9 59.1746 59.9 59.3727V59.3727Z" fill="white" fill-opacity="0.7"/>
</svg>
