<svg width="60" height="60" viewBox="0 0 60 60" fill="none" xmlns="http://www.w3.org/2000/svg">
<path fill-rule="evenodd" clip-rule="evenodd" d="M2.5 7.09501C2.5 5.87634 2.98412 4.70758 3.84585 3.84585C4.70757 2.98412 5.87633 2.50001 7.095 2.50001H52.9C53.5039 2.49902 54.1021 2.61716 54.6604 2.84767C55.2186 3.07818 55.7258 3.41653 56.1531 3.84335C56.5804 4.27016 56.9193 4.77707 57.1504 5.33503C57.3815 5.893 57.5003 6.49107 57.5 7.09501V52.9C57.5007 53.5041 57.3822 54.1023 57.1514 54.6605C56.9206 55.2188 56.5821 55.726 56.155 56.1533C55.728 56.5805 55.221 56.9194 54.6629 57.1505C54.1048 57.3816 53.5066 57.5003 52.9025 57.5H7.095C6.49137 57.5 5.89365 57.3811 5.33599 57.15C4.77834 56.9189 4.27168 56.5802 3.84496 56.1533C3.41824 55.7263 3.07983 55.2195 2.84906 54.6617C2.61828 54.1039 2.49967 53.5061 2.5 52.9025V7.09501ZM24.27 23.47H31.7175V27.21C32.7925 25.06 35.5425 23.125 39.675 23.125C47.5975 23.125 49.475 27.4075 49.475 35.265V49.82H41.4575V37.055C41.4575 32.58 40.3825 30.055 37.6525 30.055C33.865 30.055 32.29 32.7775 32.29 37.055V49.82H24.27V23.47ZM10.52 49.4775H18.54V23.125H10.52V49.475V49.4775ZM19.6875 14.53C19.7026 15.2167 19.5804 15.8995 19.3281 16.5383C19.0758 17.1771 18.6984 17.7591 18.2181 18.2501C17.7378 18.7411 17.1642 19.1312 16.5311 19.3975C15.898 19.6639 15.2181 19.801 14.5313 19.801C13.8444 19.801 13.1645 19.6639 12.5314 19.3975C11.8983 19.1312 11.3247 18.7411 10.8444 18.2501C10.3641 17.7591 9.98673 17.1771 9.7344 16.5383C9.48207 15.8995 9.35988 15.2167 9.375 14.53C9.40468 13.1821 9.96096 11.8995 10.9247 10.9567C11.8885 10.014 13.1831 9.48605 14.5313 9.48605C15.8794 9.48605 17.174 10.014 18.1378 10.9567C19.1015 11.8995 19.6578 13.1821 19.6875 14.53Z" fill="white"/>
</svg>
