<svg width="60" height="60" viewBox="0 0 60 60" fill="none" xmlns="http://www.w3.org/2000/svg">
<path d="M29.7459 0.0169678C14.5509 0.0169678 15.4996 6.63226 15.4996 6.63226L15.5165 13.4859H30.0168V15.5436H9.75722C9.75722 15.5436 0.0339355 14.4365 0.0339355 29.8283C0.0339355 45.2205 8.52065 44.6746 8.52065 44.6746H13.5855V37.532C13.5855 37.532 13.3125 29.012 21.9367 29.012H36.3185C36.3185 29.012 44.3985 29.1431 44.3985 21.1723V7.99297C44.3985 7.99297 45.6257 0.0169678 29.7459 0.0169678ZM21.7504 4.62591C22.0931 4.6256 22.4324 4.69313 22.749 4.82462C23.0657 4.95612 23.3534 5.14901 23.5957 5.39225C23.838 5.6355 24.0301 5.92432 24.1611 6.24219C24.2921 6.56006 24.3593 6.90074 24.359 7.24473C24.3593 7.58873 24.2921 7.92941 24.1611 8.24728C24.0301 8.56515 23.838 8.85397 23.5957 9.09721C23.3534 9.34045 23.0657 9.53334 22.749 9.66484C22.4324 9.79634 22.0931 9.86386 21.7504 9.86355C21.4078 9.86386 21.0684 9.79634 20.7518 9.66484C20.4352 9.53334 20.1475 9.34045 19.9052 9.09721C19.6629 8.85397 19.4707 8.56515 19.3398 8.24728C19.2088 7.92941 19.1415 7.58873 19.1418 7.24473C19.1415 6.90074 19.2088 6.56006 19.3398 6.24219C19.4707 5.92432 19.6629 5.6355 19.9052 5.39225C20.1475 5.14901 20.4352 4.95612 20.7518 4.82462C21.0684 4.69313 21.4078 4.6256 21.7504 4.62591Z" fill="url(#paint0_linear_26_59)"/>
<path d="M30.1773 59.7943C45.3723 59.7943 44.4236 53.179 44.4236 53.179L44.4067 46.3256H29.9061V44.268H50.1658C50.1658 44.268 59.889 45.375 59.889 29.9828C59.889 14.5908 51.4023 15.1367 51.4023 15.1367H46.3375V22.279C46.3375 22.279 46.6105 30.799 37.9862 30.799H23.6045C23.6045 30.799 15.5244 30.668 15.5244 38.639V51.8186C15.5244 51.8186 14.2975 59.7943 30.1771 59.7943H30.1773ZM38.1728 55.1858C37.8301 55.1862 37.4908 55.1186 37.1742 54.9871C36.8575 54.8556 36.5698 54.6627 36.3275 54.4195C36.0852 54.1763 35.8931 53.8874 35.7621 53.5696C35.6311 53.2517 35.5639 52.911 35.5642 52.567C35.5638 52.223 35.6311 51.8823 35.7621 51.5644C35.893 51.2465 36.0852 50.9577 36.3275 50.7144C36.5698 50.4711 36.8575 50.2782 37.1741 50.1467C37.4907 50.0152 37.8301 49.9477 38.1728 49.948C38.5154 49.9477 38.8548 50.0152 39.1714 50.1467C39.488 50.2782 39.7757 50.4711 40.018 50.7143C40.2603 50.9576 40.4525 51.2464 40.5834 51.5642C40.7144 51.8821 40.7817 52.2228 40.7814 52.5668C40.7817 52.9108 40.7144 53.2515 40.5834 53.5693C40.4525 53.8872 40.2603 54.176 40.018 54.4193C39.7757 54.6625 39.488 54.8554 39.1714 54.9869C38.8548 55.1184 38.5154 55.1859 38.1728 55.1856V55.1858Z" fill="url(#paint1_linear_26_59)"/>
<defs>
<linearGradient id="paint0_linear_26_59" x1="5.786" y1="5.39359" x2="35.5633" y2="34.7587" gradientUnits="userSpaceOnUse">
<stop stop-color="#387EB8"/>
<stop offset="1" stop-color="#366994"/>
</linearGradient>
<linearGradient id="paint1_linear_26_59" x1="23.9927" y1="24.3249" x2="55.9644" y2="54.4306" gradientUnits="userSpaceOnUse">
<stop stop-color="#FFE052"/>
<stop offset="1" stop-color="#FFC331"/>
</linearGradient>
</defs>
</svg>
